<?xml version="1.0" encoding="UTF-8" standalone="no"?>
<svg
   xmlns:dc="http://purl.org/dc/elements/1.1/"
   xmlns:cc="http://creativecommons.org/ns#"
   xmlns:rdf="http://www.w3.org/1999/02/22-rdf-syntax-ns#"
   xmlns:svg="http://www.w3.org/2000/svg"
   xmlns="http://www.w3.org/2000/svg"
   xmlns:sodipodi="http://sodipodi.sourceforge.net/DTD/sodipodi-0.dtd"
   xmlns:inkscape="http://www.inkscape.org/namespaces/inkscape"
   viewBox="0 0 1379.9589 955.68878"
   id="svg2985"
   version="1.1"
   inkscape:version="0.48.4 r9943 custom"
   width="100%"
   height="100%"
   sodipodi:docname="pattern-37436.svg">
  <metadata
     id="metadata3137">
    <rdf:RDF>
      <cc:Work
         rdf:about="">
        <dc:format>image/svg+xml</dc:format>
        <dc:type
           rdf:resource="http://purl.org/dc/dcmitype/StillImage" />
      </cc:Work>
    </rdf:RDF>
  </metadata>
  <defs
     id="defs3135" />
  <sodipodi:namedview
     pagecolor="#ffffff"
     bordercolor="#666666"
     borderopacity="1"
     objecttolerance="10"
     gridtolerance="10"
     guidetolerance="10"
     inkscape:pageopacity="0"
     inkscape:pageshadow="2"
     inkscape:window-width="1397"
     inkscape:window-height="856"
     id="namedview3133"
     showgrid="false"
     inkscape:zoom="0.65378181"
     inkscape:cx="689.97945"
     inkscape:cy="477.84439"
     inkscape:window-x="43"
     inkscape:window-y="22"
     inkscape:window-maximized="0"
     inkscape:current-layer="svg2985" />
  <path
     d="m104,80-64.4156-.23995-32-55.90552 32.4156-55.66557 64.4156.23995 32,55.90552-32.4156,55.66557z"
     fill="none"
     stroke="#000"
     stroke-linecap="round"
     stroke-width="3.54331"
     transform="translate(89.3561,145.58269)"
     id="path2987"
     style="stroke:#ececec" />
  <path
     d="m104,80-64.4156-.23995-32-55.90552 32.4156-55.66557 64.4156.23995 32,55.90552-32.4156,55.66557z"
     fill="none"
     stroke="#000"
     stroke-linecap="round"
     stroke-width="3.54331"
     transform="translate(185.3561,201.58269)"
     id="path2989"
     style="stroke:#ececec" />
  <path
     d="m104,80-64.4156-.23995-32-55.90552 32.4156-55.66557 64.4156.23995 32,55.90552-32.4156,55.66557z"
     fill="none"
     stroke="#000"
     stroke-linecap="round"
     stroke-width="3.54331"
     transform="translate(185.7717,89.82264)"
     id="path2991"
     style="stroke:#ececec" />
  <path
     d="m104,80-64.4156-.23995-32-55.90552 32.4156-55.66557 64.4156.23995 32,55.90552-32.4156,55.66557z"
     fill="none"
     stroke="#000"
     stroke-linecap="round"
     stroke-width="3.54331"
     transform="translate(281.7717,145.82264)"
     id="path2993"
     style="stroke:#ececec" />
  <path
     d="m104,80-64.4156-.23995-32-55.90552 32.4156-55.66557 64.4156.23995 32,55.90552-32.4156,55.66557z"
     fill="none"
     stroke="#000"
     stroke-linecap="round"
     stroke-width="3.54331"
     transform="translate(185.7717,313.91712)"
     id="path2995"
     style="stroke:#ececec" />
  <path
     d="m104,80-64.4156-.23995-32-55.90552 32.4156-55.66557 64.4156.23995 32,55.90552-32.4156,55.66557z"
     fill="none"
     stroke="#000"
     stroke-linecap="round"
     stroke-width="3.54331"
     transform="translate(281.7717,369.91712)"
     id="path2997"
     style="stroke:#ececec" />
  <path
     d="m104,80-64.4156-.23995-32-55.90552 32.4156-55.66557 64.4156.23995 32,55.90552-32.4156,55.66557z"
     fill="none"
     stroke="#000"
     stroke-linecap="round"
     stroke-width="3.54331"
     transform="translate(282.1873,258.15707)"
     id="path2999"
     style="stroke:#ececec" />
  <path
     d="m104,80-64.4156-.23995-32-55.90552 32.4156-55.66557 64.4156.23995 32,55.90552-32.4156,55.66557z"
     fill="none"
     stroke="#000"
     stroke-linecap="round"
     stroke-width="3.54331"
     transform="translate(378.1873,314.15707)"
     id="path3001"
     style="stroke:#ececec" />
  <path
     d="m104,80-64.4156-.23995-32-55.90552 32.4156-55.66557 64.4156.23995 32,55.90552-32.4156,55.66557z"
     fill="none"
     stroke="#000"
     stroke-linecap="round"
     stroke-width="3.54331"
     transform="translate(376.9405,201.24826)"
     id="path3003"
     style="stroke:#ececec" />
  <path
     d="m104,80-64.4156-.23995-32-55.90552 32.4156-55.66557 64.4156.23995 32,55.90552-32.4156,55.66557z"
     fill="none"
     stroke="#000"
     stroke-linecap="round"
     stroke-width="3.54331"
     transform="translate(472.9405,257.24826)"
     id="path3005"
     style="stroke:#ececec" />
  <path
     d="m104,80-64.4156-.23995-32-55.90552 32.4156-55.66557 64.4156.23995 32,55.90552-32.4156,55.66557z"
     fill="none"
     stroke="#000"
     stroke-linecap="round"
     stroke-width="3.54331"
     transform="translate(473.3561,145.48821)"
     id="path3007"
     style="stroke:#ececec" />
  <path
     d="m104,80-64.4156-.23995-32-55.90552 32.4156-55.66557 64.4156.23995 32,55.90552-32.4156,55.66557z"
     fill="none"
     stroke="#000"
     stroke-linecap="round"
     stroke-width="3.54331"
     transform="translate(569.3561,201.4882)"
     id="path3009"
     style="stroke:#ececec" />
  <path
     d="m104,80-64.4156-.23995-32-55.90552 32.4156-55.66557 64.4156.23995 32,55.90552-32.4156,55.66557z"
     fill="none"
     stroke="#000"
     stroke-linecap="round"
     stroke-width="3.54331"
     transform="translate(473.3561,369.58269)"
     id="path3011"
     style="stroke:#ececec" />
  <path
     d="m104,80-64.4156-.23995-32-55.90552 32.4156-55.66557 64.4156.23995 32,55.90552-32.4156,55.66557z"
     fill="none"
     stroke="#000"
     stroke-linecap="round"
     stroke-width="3.54331"
     transform="translate(569.3561,425.58269)"
     id="path3013"
     style="stroke:#ececec" />
  <path
     d="m104,80-64.4156-.23995-32-55.90552 32.4156-55.66557 64.4156.23995 32,55.90552-32.4156,55.66557z"
     fill="none"
     stroke="#000"
     stroke-linecap="round"
     stroke-width="3.54331"
     transform="translate(569.7717,313.82264)"
     id="path3015"
     style="stroke:#ececec" />
  <path
     d="m104,80-64.4156-.23995-32-55.90552 32.4156-55.66557 64.4156.23995 32,55.90552-32.4156,55.66557z"
     fill="none"
     stroke="#000"
     stroke-linecap="round"
     stroke-width="3.54331"
     transform="translate(665.77165,369.82264)"
     id="path3017"
     style="stroke:#ececec" />
  <path
     d="m104,80-64.4156-.23995-32-55.90552 32.4156-55.66557 64.4156.23995 32,55.90552-32.4156,55.66557z"
     fill="none"
     stroke="#000"
     stroke-linecap="round"
     stroke-width="3.54331"
     transform="translate(281.7717,481.91712)"
     id="path3019"
     style="stroke:#ececec" />
  <path
     d="m104,80-64.4156-.23995-32-55.90552 32.4156-55.66557 64.4156.23995 32,55.90552-32.4156,55.66557z"
     fill="none"
     stroke="#000"
     stroke-linecap="round"
     stroke-width="3.54331"
     transform="translate(377.7717,537.91714)"
     id="path3021"
     style="stroke:#ececec" />
  <path
     d="m104,80-64.4156-.23995-32-55.90552 32.4156-55.66557 64.4156.23995 32,55.90552-32.4156,55.66557z"
     fill="none"
     stroke="#000"
     stroke-linecap="round"
     stroke-width="3.54331"
     transform="translate(378.1873,426.15707)"
     id="path3023"
     style="stroke:#ececec" />
  <path
     d="m104,80-64.4156-.23995-32-55.90552 32.4156-55.66557 64.4156.23995 32,55.90552-32.4156,55.66557z"
     fill="none"
     stroke="#000"
     stroke-linecap="round"
     stroke-width="3.54331"
     transform="translate(474.1873,482.15706)"
     id="path3025"
     style="stroke:#cccccc" />
  <path
     d="m104,80-64.4156-.23995-32-55.90552 32.4156-55.66557 64.4156.23995 32,55.90552-32.4156,55.66557z"
     fill="none"
     stroke="#000"
     stroke-linecap="round"
     stroke-width="3.54331"
     transform="translate(378.1873,650.25154)"
     id="path3027"
     style="stroke:#ececec" />
  <path
     d="m104,80-64.4156-.23995-32-55.90552 32.4156-55.66557 64.4156.23995 32,55.90552-32.4156,55.66557z"
     fill="none"
     stroke="#000"
     stroke-linecap="round"
     stroke-width="3.54331"
     transform="translate(474.1873,706.25154)"
     id="path3029"
     style="stroke:#ececec" />
  <path
     d="m104,80-64.4156-.23995-32-55.90552 32.4156-55.66557 64.4156.23995 32,55.90552-32.4156,55.66557z"
     fill="none"
     stroke="#000"
     stroke-linecap="round"
     stroke-width="3.54331"
     transform="translate(474.6029,594.49154)"
     id="path3031"
     style="stroke:#ececec" />
  <path
     d="m104,80-64.4156-.23995-32-55.90552 32.4156-55.66557 64.4156.23995 32,55.90552-32.4156,55.66557z"
     fill="none"
     stroke="#000"
     stroke-linecap="round"
     stroke-width="3.54331"
     transform="translate(570.6029,650.49154)"
     id="path3033"
     style="stroke:#ececec" />
  <path
     d="m104,80-64.4156-.23995-32-55.90552 32.4156-55.66557 64.4156.23995 32,55.90552-32.4156,55.66557z"
     fill="none"
     stroke="#000"
     stroke-linecap="round"
     stroke-width="3.54331"
     transform="translate(569.3561,537.58274)"
     id="path3035"
     style="stroke:#ececec" />
  <path
     d="m104,80-64.4156-.23995-32-55.90552 32.4156-55.66557 64.4156.23995 32,55.90552-32.4156,55.66557z"
     fill="none"
     stroke="#000"
     stroke-linecap="round"
     stroke-width="3.54331"
     transform="translate(665.35605,593.58274)"
     id="path3037"
     style="stroke:#ececec" />
  <path
     d="m104,80-64.4156-.23995-32-55.90552 32.4156-55.66557 64.4156.23995 32,55.90552-32.4156,55.66557z"
     fill="none"
     stroke="#000"
     stroke-linecap="round"
     stroke-width="3.54331"
     transform="translate(665.77165,481.82264)"
     id="path3039"
     style="stroke:#ececec" />
  <path
     d="m104,80-64.4156-.23995-32-55.90552 32.4156-55.66557 64.4156.23995 32,55.90552-32.4156,55.66557z"
     fill="none"
     stroke="#000"
     stroke-linecap="round"
     stroke-width="3.54331"
     transform="translate(761.77165,537.82264)"
     id="path3041"
     style="stroke:#ececec" />
  <path
     d="m104,80-64.4156-.23995-32-55.90552 32.4156-55.66557 64.4156.23995 32,55.90552-32.4156,55.66557z"
     fill="none"
     stroke="#000"
     stroke-linecap="round"
     stroke-width="3.54331"
     transform="translate(665.77165,705.91714)"
     id="path3043"
     style="stroke:#ececec" />
  <path
     d="m104,80-64.4156-.23995-32-55.90552 32.4156-55.66557 64.4156.23995 32,55.90552-32.4156,55.66557z"
     fill="none"
     stroke="#000"
     stroke-linecap="round"
     stroke-width="3.54331"
     transform="translate(761.77165,761.91714)"
     id="path3045"
     style="stroke:#ececec" />
  <path
     d="m104,80-64.4156-.23995-32-55.90552 32.4156-55.66557 64.4156.23995 32,55.90552-32.4156,55.66557z"
     fill="none"
     stroke="#000"
     stroke-linecap="round"
     stroke-width="3.54331"
     transform="translate(762.18725,650.15704)"
     id="path3047"
     style="stroke:#ececec" />
  <path
     d="m104,80-64.4156-.23995-32-55.90552 32.4156-55.66557 64.4156.23995 32,55.90552-32.4156,55.66557z"
     fill="none"
     stroke="#000"
     stroke-linecap="round"
     stroke-width="3.54331"
     transform="translate(858.18725,706.15704)"
     id="path3049"
     style="stroke:#ececec" />
  <path
     d="m104,80-64.4156-.23995-32-55.90552 32.4156-55.66557 64.4156.23995 32,55.90552-32.4156,55.66557z"
     fill="none"
     stroke="#000"
     stroke-linecap="round"
     stroke-width="3.54331"
     transform="translate(760.52485,425.10279)"
     id="path3051"
     style="stroke:#ececec" />
  <path
     d="m104,80-64.4156-.23995-32-55.90552 32.4156-55.66557 64.4156.23995 32,55.90552-32.4156,55.66557z"
     fill="none"
     stroke="#000"
     stroke-linecap="round"
     stroke-width="3.54331"
     transform="translate(856.52485,481.10279)"
     id="path3053"
     style="stroke:#ececec" />
  <path
     d="m104,80-64.4156-.23995-32-55.90552 32.4156-55.66557 64.4156.23995 32,55.90552-32.4156,55.66557z"
     fill="none"
     stroke="#000"
     stroke-linecap="round"
     stroke-width="3.54331"
     transform="translate(856.94045,369.34274)"
     id="path3055"
     style="stroke:#ececec" />
  <path
     d="m104,80-64.4156-.23995-32-55.90552 32.4156-55.66557 64.4156.23995 32,55.90552-32.4156,55.66557z"
     fill="none"
     stroke="#000"
     stroke-linecap="round"
     stroke-width="3.54331"
     transform="translate(952.94045,425.34273)"
     id="path3057"
     style="stroke:#ececec" />
  <path
     d="m104,80-64.4156-.23995-32-55.90552 32.4156-55.66557 64.4156.23995 32,55.90552-32.4156,55.66557z"
     fill="none"
     stroke="#000"
     stroke-linecap="round"
     stroke-width="3.54331"
     transform="translate(856.94045,593.43724)"
     id="path3059"
     style="stroke:#ececec" />
  <path
     d="m104,80-64.4156-.23995-32-55.90552 32.4156-55.66557 64.4156.23995 32,55.90552-32.4156,55.66557z"
     fill="none"
     stroke="#000"
     stroke-linecap="round"
     stroke-width="3.54331"
     transform="translate(952.94045,649.43724)"
     id="path3061"
     style="stroke:#ececec" />
  <path
     d="m104,80-64.4156-.23995-32-55.90552 32.4156-55.66557 64.4156.23995 32,55.90552-32.4156,55.66557z"
     fill="none"
     stroke="#000"
     stroke-linecap="round"
     stroke-width="3.54331"
     transform="translate(953.35605,537.67714)"
     id="path3063"
     style="stroke:#ececec" />
  <path
     d="m104,80-64.4156-.23995-32-55.90552 32.4156-55.66557 64.4156.23995 32,55.90552-32.4156,55.66557z"
     fill="none"
     stroke="#000"
     stroke-linecap="round"
     stroke-width="3.54331"
     transform="translate(1049.35605,593.67714)"
     id="path3065"
     style="stroke:#ececec" />
  <path
     d="m104,80-64.4156-.23995-32-55.90552 32.4156-55.66557 64.4156.23995 32,55.90552-32.4156,55.66557z"
     fill="none"
     stroke="#000"
     stroke-linecap="round"
     stroke-width="3.54331"
     transform="translate(1049.35605,481.67718)"
     id="path3067"
     style="stroke:#ececec" />
  <path
     d="m104,80-64.4156-.23995-32-55.90552 32.4156-55.66557 64.4156.23995 32,55.90552-32.4156,55.66557z"
     fill="none"
     stroke="#000"
     stroke-linecap="round"
     stroke-width="3.54331"
     transform="translate(1145.35605,537.67724)"
     id="path3069"
     style="stroke:#ececec" />
  <path
     d="m104,80-64.4156-.23995-32-55.90552 32.4156-55.66557 64.4156.23995 32,55.90552-32.4156,55.66557z"
     fill="none"
     stroke="#000"
     stroke-linecap="round"
     stroke-width="3.54331"
     transform="translate(1145.77165,425.91713)"
     id="path3071"
     style="stroke:#ececec" />
  <path
     d="m104,80-64.4156-.23995-32-55.90552 32.4156-55.66557 64.4156.23995 32,55.90552-32.4156,55.66557z"
     fill="none"
     stroke="#000"
     stroke-linecap="round"
     stroke-width="3.54331"
     transform="translate(1241.77165,481.91713)"
     id="path3073"
     style="stroke:#e6e6e6;" />
  <path
     d="m104,80-64.4156-.23995-32-55.90552 32.4156-55.66557 64.4156.23995 32,55.90552-32.4156,55.66557z"
     fill="none"
     stroke="#000"
     stroke-linecap="round"
     stroke-width="3.54331"
     transform="translate(665.35605,257.67717)"
     id="path3075"
     style="stroke:#cccccc" />
  <path
     d="m104,80-64.4156-.23995-32-55.90552 32.4156-55.66557 64.4156.23995 32,55.90552-32.4156,55.66557z"
     fill="none"
     stroke="#000"
     stroke-linecap="round"
     stroke-width="3.54331"
     transform="translate(761.35605,313.67717)"
     id="path3077"
     style="stroke:#ececec" />
  <path
     d="m104,80-64.4156-.23995-32-55.90552 32.4156-55.66557 64.4156.23995 32,55.90552-32.4156,55.66557z"
     fill="none"
     stroke="#000"
     stroke-linecap="round"
     stroke-width="3.54331"
     transform="translate(761.77165,201.91712)"
     id="path3079"
     style="stroke:#ececec" />
  <path
     d="m104,80-64.4156-.23995-32-55.90552 32.4156-55.66557 64.4156.23995 32,55.90552-32.4156,55.66557z"
     fill="none"
     stroke="#000"
     stroke-linecap="round"
     stroke-width="3.54331"
     transform="translate(857.77165,257.91712)"
     id="path3081"
     style="stroke:#ececec" />
  <path
     d="m104,80-64.4156-.23995-32-55.90552 32.4156-55.66557 64.4156.23995 32,55.90552-32.4156,55.66557z"
     fill="none"
     stroke="#000"
     stroke-linecap="round"
     stroke-width="3.54331"
     transform="translate(955.95895,203.35434)"
     id="path3083"
     style="stroke:#e6e6e6" />
  <path
     d="m104,80-64.4156-.23995-32-55.90552 32.4156-55.66557 64.4156.23995 32,55.90552-32.4156,55.66557z"
     fill="none"
     stroke="#000"
     stroke-linecap="round"
     stroke-width="3.54331"
     transform="translate(568.9405,89.34275)"
     id="path3085"
     style="stroke:#ececec" />
  <path
     d="m104,80-64.4156-.23995-32-55.90552 32.4156-55.66557 64.4156.23995 32,55.90552-32.4156,55.66557z"
     fill="none"
     stroke="#000"
     stroke-linecap="round"
     stroke-width="3.54331"
     transform="translate(664.94045,145.34274)"
     id="path3087"
     style="stroke:#ececec" />
  <path
     d="m104,80-64.4156-.23995-32-55.90552 32.4156-55.66557 64.4156.23995 32,55.90552-32.4156,55.66557z"
     fill="none"
     stroke="#000"
     stroke-linecap="round"
     stroke-width="3.54331"
     transform="translate(665.35605,33.58269)"
     id="path3089"
     style="stroke:#ececec" />
  <path
     d="m104,80-64.4156-.23995-32-55.90552 32.4156-55.66557 64.4156.23995 32,55.90552-32.4156,55.66557z"
     fill="none"
     stroke="#000"
     stroke-linecap="round"
     stroke-width="3.54331"
     transform="translate(761.35605,89.58269)"
     id="path3091"
     style="stroke:#ececec" />
  <path
     d="m104,80-64.4156-.23995-32-55.90552 32.4156-55.66557 64.4156.23995 32,55.90552-32.4156,55.66557z"
     fill="none"
     stroke="#000"
     stroke-linecap="round"
     stroke-width="3.54331"
     transform="translate(89.7717,593.82264)"
     id="path3093"
     style="stroke:#ececec" />
  <path
     d="m104,80-64.4156-.23995-32-55.90552 32.4156-55.66557 64.4156.23995 32,55.90552-32.4156,55.66557z"
     fill="none"
     stroke="#000"
     stroke-linecap="round"
     stroke-width="3.54331"
     transform="translate(185.7717,649.82264)"
     id="path3095"
     style="stroke:#ececec" />
  <path
     d="m104,80-64.4156-.23995-32-55.90552 32.4156-55.66557 64.4156.23995 32,55.90552-32.4156,55.66557z"
     fill="none"
     stroke="#000"
     stroke-linecap="round"
     stroke-width="3.54331"
     transform="translate(186.1873,538.06264)"
     id="path3097"
     style="stroke:#ececec" />
  <path
     d="m104,80-64.4156-.23995-32-55.90552 32.4156-55.66557 64.4156.23995 32,55.90552-32.4156,55.66557z"
     fill="none"
     stroke="#000"
     stroke-linecap="round"
     stroke-width="3.54331"
     transform="translate(282.1873,594.06264)"
     id="path3099"
     style="stroke:#ececec" />
  <path
     d="m104,80-64.4156-.23995-32-55.90552 32.4156-55.66557 64.4156.23995 32,55.90552-32.4156,55.66557z"
     fill="none"
     stroke="#000"
     stroke-linecap="round"
     stroke-width="3.54331"
     transform="translate(-5.8127,426.25155)"
     id="path3101"
     style="stroke:#ececec" />
  <path
     d="m104,80-64.4156-.23995-32-55.90552 32.4156-55.66557 64.4156.23995 32,55.90552-32.4156,55.66557z"
     fill="none"
     stroke="#000"
     stroke-linecap="round"
     stroke-width="3.54331"
     transform="translate(90.1873,482.25155)"
     id="path3103"
     style="stroke:#ececec" />
  <path
     d="m104,80-64.4156-.23995-32-55.90552 32.4156-55.66557 64.4156.23995 32,55.90552-32.4156,55.66557z"
     fill="none"
     stroke="#000"
     stroke-linecap="round"
     stroke-width="3.54331"
     transform="translate(90.6029,370.4915)"
     id="path3105"
     style="stroke:#ececec" />
  <path
     d="m104,80-64.4156-.23995-32-55.90552 32.4156-55.66557 64.4156.23995 32,55.90552-32.4156,55.66557z"
     fill="none"
     stroke="#000"
     stroke-linecap="round"
     stroke-width="3.54331"
     transform="translate(186.6029,426.4915)"
     id="path3107"
     style="stroke:#ececec" />
  <path
     d="m104,80-64.4156-.23995-32-55.90552 32.4156-55.66557 64.4156.23995 32,55.90552-32.4156,55.66557z"
     fill="none"
     stroke="#000"
     stroke-linecap="round"
     stroke-width="3.54331"
     transform="translate(186.1873,762.15704)"
     id="path3109"
     style="stroke:#ececec" />
  <path
     d="m104,80-64.4156-.23995-32-55.90552 32.4156-55.66557 64.4156.23995 32,55.90552-32.4156,55.66557z"
     fill="none"
     stroke="#000"
     stroke-linecap="round"
     stroke-width="3.54331"
     transform="translate(282.1873,818.15704)"
     id="path3111"
     style="stroke:#e6e6e6" />
  <path
     d="m104,80-64.4156-.23995-32-55.90552 32.4156-55.66557 64.4156.23995 32,55.90552-32.4156,55.66557z"
     fill="none"
     stroke="#000"
     stroke-linecap="round"
     stroke-width="3.54331"
     transform="translate(282.6029,706.39704)"
     id="path3113"
     style="stroke:#ececec" />
  <path
     d="m104,80-64.4156-.23995-32-55.90552 32.4156-55.66557 64.4156.23995 32,55.90552-32.4156,55.66557z"
     fill="none"
     stroke="#000"
     stroke-linecap="round"
     stroke-width="3.54331"
     transform="translate(378.6029,762.39704)"
     id="path3115"
     style="stroke:#ececec" />
  <path
     d="m104,80-64.4156-.23995-32-55.90552 32.4156-55.66557 64.4156.23995 32,55.90552-32.4156,55.66557z"
     fill="none"
     stroke="#000"
     stroke-linecap="round"
     stroke-width="3.54331"
     transform="translate(857.77165,817.91714)"
     id="path3117"
     style="stroke:#ececec" />
  <path
     d="m104,80-64.4156-.23995-32-55.90552 32.4156-55.66557 64.4156.23995 32,55.90552-32.4156,55.66557z"
     fill="none"
     stroke="#000"
     stroke-linecap="round"
     stroke-width="3.54331"
     transform="translate(953.77165,873.91714)"
     id="path3119"
     style="stroke:#ececec" />
  <path
     d="m104,80-64.4156-.23995-32-55.90552 32.4156-55.66557 64.4156.23995 32,55.90552-32.4156,55.66557z"
     fill="none"
     stroke="#000"
     stroke-linecap="round"
     stroke-width="3.54331"
     transform="translate(954.18725,762.15704)"
     id="path3121"
     style="stroke:#ececec" />
  <path
     d="m104,80-64.4156-.23995-32-55.90552 32.4156-55.66557 64.4156.23995 32,55.90552-32.4156,55.66557z"
     fill="none"
     stroke="#000"
     stroke-linecap="round"
     stroke-width="3.54331"
     transform="translate(1050.18725,818.15704)"
     id="path3123"
     style="stroke:#ececec" />
  <path
     d="m104,80-64.4156-.23995-32-55.90552 32.4156-55.66557 64.4156.23995 32,55.90552-32.4156,55.66557z"
     fill="none"
     stroke="#000"
     stroke-linecap="round"
     stroke-width="3.54331"
     transform="translate(473.7717,817.82264)"
     id="path3125"
     style="stroke:#ececec" />
  <path
     d="m104,80-64.4156-.23995-32-55.90552 32.4156-55.66557 64.4156.23995 32,55.90552-32.4156,55.66557z"
     fill="none"
     stroke="#000"
     stroke-linecap="round"
     stroke-width="3.54331"
     transform="translate(569.7717,873.82264)"
     id="path3127"
     style="stroke:#ececec" />
  <path
     d="m104,80-64.4156-.23995-32-55.90552 32.4156-55.66557 64.4156.23995 32,55.90552-32.4156,55.66557z"
     fill="none"
     stroke="#000"
     stroke-linecap="round"
     stroke-width="3.54331"
     transform="translate(570.1873,762.06264)"
     id="path3129"
     style="stroke:#ececec" />
  <path
     d="m104,80-64.4156-.23995-32-55.90552 32.4156-55.66557 64.4156.23995 32,55.90552-32.4156,55.66557z"
     fill="none"
     stroke="#000"
     stroke-linecap="round"
     stroke-width="3.54331"
     transform="translate(666.18725,818.06264)"
     id="path3131"
     style="stroke:#ececec" />
</svg>
